<svg width="17" height="12" viewBox="0 0 17 12" fill="none" xmlns="http://www.w3.org/2000/svg">
<path fill-rule="evenodd" clip-rule="evenodd" d="M13.8996 0.171126C14.1689 -0.0755308 14.5822 -0.052865 14.8228 0.221791C16.2259 1.81773 17 3.86965 17 6.00023C17 8.13082 16.2259 10.1827 14.8228 11.7787C14.6933 11.9253 14.5155 12 14.3363 12C14.1807 12 14.0251 11.944 13.8996 11.8293C13.6302 11.584 13.608 11.1627 13.8499 10.888C15.0372 9.53743 15.6923 7.8015 15.6923 6.00023C15.6923 4.19897 15.0372 2.46304 13.8499 1.11242C13.608 0.837767 13.6302 0.41645 13.8996 0.171126ZM1.30765 6.00023C1.30765 4.19897 1.96148 2.46304 3.15013 1.11242C3.39074 0.837767 3.36851 0.41645 3.10044 0.171126C2.83237 -0.0741975 2.41916 -0.0515317 2.17724 0.221791C0.772822 1.81773 0 3.86965 0 6.00023C0 8.13082 0.772822 10.1827 2.17724 11.7787C2.3067 11.9253 2.48454 12 2.66369 12C2.8193 12 2.97491 11.944 3.10044 11.8293C3.36982 11.584 3.39205 11.1627 3.15013 10.888C1.96148 9.53743 1.30765 7.8015 1.30765 6.00023ZM8.49974 0.667107C5.61114 0.667107 3.26913 3.05501 3.26913 6.00023C3.26913 8.94545 5.61114 11.3334 8.49974 11.3334C11.3883 11.3334 13.7303 8.94545 13.7303 6.00023C13.7303 3.05501 11.3883 0.667107 8.49974 0.667107Z" fill="#F6CD35"/>
</svg>
