<svg width="146" height="34" viewBox="0 0 146 34" fill="none" xmlns="http://www.w3.org/2000/svg">
<path d="M11.356 25H7.99V3.886H0.272V0.928H19.074V3.886H11.356V25ZM25.6867 18.064H17.7987V15.344H25.6867V18.064ZM31.1034 25H27.3634L37.8014 0.928H40.8614L51.1974 25H47.3894L44.9414 19.084H33.5174L31.1034 25ZM34.7074 16.126H43.7174L39.2294 4.838L34.7074 16.126ZM55.3772 27.754C56.0799 28.5473 56.9526 29.182 57.9952 29.658C59.0606 30.134 60.1486 30.372 61.2592 30.372C62.3246 30.372 63.2199 30.2133 63.9452 29.896C64.6706 29.6013 65.2486 29.182 65.6792 28.638C66.1326 28.1167 66.4499 27.4933 66.6312 26.768C66.8352 26.0427 66.9372 25.2607 66.9372 24.422V22.348H66.8692C66.2799 23.2547 65.4752 23.946 64.4552 24.422C63.4352 24.898 62.3472 25.136 61.1912 25.136C59.9672 25.136 58.8452 24.9207 57.8252 24.49C56.8279 24.0593 55.9779 23.47 55.2752 22.722C54.5726 21.974 54.0286 21.1013 53.6432 20.104C53.2579 19.084 53.0652 17.996 53.0652 16.84C53.0652 15.684 53.2579 14.596 53.6432 13.576C54.0286 12.556 54.5726 11.672 55.2752 10.924C55.9779 10.1533 56.8279 9.55267 57.8252 9.122C58.8226 8.66867 59.9332 8.442 61.1572 8.442C62.3132 8.442 63.4126 8.69133 64.4552 9.19C65.5206 9.68867 66.3592 10.448 66.9712 11.468H67.0392V8.884H70.1332V24.184C70.1332 25.3627 69.9859 26.4847 69.6912 27.55C69.3966 28.638 68.8979 29.59 68.1952 30.406C67.4926 31.2447 66.5746 31.9133 65.4412 32.412C64.3079 32.9107 62.9026 33.16 61.2252 33.16C59.8199 33.16 58.4032 32.8993 56.9752 32.378C55.5699 31.8793 54.3572 31.1653 53.3372 30.236L55.3772 27.754ZM56.3632 16.772C56.3632 17.52 56.4766 18.234 56.7032 18.914C56.9526 19.594 57.3039 20.1947 57.7572 20.716C58.2332 21.2373 58.7999 21.6567 59.4572 21.974C60.1146 22.2913 60.8626 22.45 61.7012 22.45C62.5172 22.45 63.2652 22.3027 63.9452 22.008C64.6252 21.7133 65.2032 21.3167 65.6792 20.818C66.1552 20.2967 66.5179 19.696 66.7672 19.016C67.0392 18.3133 67.1752 17.5653 67.1752 16.772C67.1752 16.0013 67.0392 15.276 66.7672 14.596C66.5179 13.916 66.1439 13.3153 65.6452 12.794C65.1692 12.2727 64.5912 11.8647 63.9112 11.57C63.2539 11.2527 62.5172 11.094 61.7012 11.094C60.8626 11.094 60.1146 11.2527 59.4572 11.57C58.7999 11.8647 58.2332 12.2727 57.7572 12.794C57.3039 13.2927 56.9526 13.8933 56.7032 14.596C56.4766 15.276 56.3632 16.0013 56.3632 16.772ZM87.3997 15.514C87.377 14.8793 87.2637 14.29 87.0597 13.746C86.8783 13.1793 86.595 12.692 86.2097 12.284C85.847 11.876 85.3823 11.5587 84.8157 11.332C84.2717 11.0827 83.6257 10.958 82.8777 10.958C82.1977 10.958 81.5517 11.0827 80.9397 11.332C80.3503 11.5587 79.829 11.876 79.3757 12.284C78.945 12.692 78.5823 13.1793 78.2877 13.746C78.0157 14.29 77.857 14.8793 77.8117 15.514H87.3997ZM90.6297 16.806C90.6297 16.9873 90.6297 17.1687 90.6297 17.35C90.6297 17.5313 90.6183 17.7127 90.5957 17.894H77.8117C77.8343 18.574 77.9817 19.22 78.2537 19.832C78.5483 20.4213 78.9337 20.9427 79.4097 21.396C79.8857 21.8267 80.4297 22.1667 81.0417 22.416C81.6763 22.6653 82.345 22.79 83.0477 22.79C84.1357 22.79 85.0763 22.552 85.8697 22.076C86.663 21.6 87.2863 21.022 87.7397 20.342L89.9837 22.144C89.1223 23.2773 88.1023 24.116 86.9237 24.66C85.7677 25.1813 84.4757 25.442 83.0477 25.442C81.8237 25.442 80.6903 25.238 79.6477 24.83C78.605 24.422 77.7097 23.8553 76.9617 23.13C76.2137 22.382 75.6243 21.4867 75.1937 20.444C74.763 19.4013 74.5477 18.2453 74.5477 16.976C74.5477 15.7293 74.7517 14.5847 75.1597 13.542C75.5903 12.4767 76.1797 11.57 76.9277 10.822C77.6757 10.074 78.5597 9.496 79.5797 9.088C80.5997 8.65733 81.699 8.442 82.8777 8.442C84.0563 8.442 85.1217 8.63467 86.0737 9.02C87.0483 9.40533 87.8643 9.96067 88.5217 10.686C89.2017 11.4113 89.723 12.2953 90.0857 13.338C90.4483 14.358 90.6297 15.514 90.6297 16.806ZM97.9819 8.884C98.0272 9.292 98.0612 9.75667 98.0839 10.278C98.1066 10.7767 98.1179 11.196 98.1179 11.536H98.2199C98.4239 11.1053 98.6959 10.7087 99.0359 10.346C99.3986 9.96067 99.8066 9.632 100.26 9.36C100.713 9.06533 101.212 8.83867 101.756 8.68C102.3 8.52133 102.867 8.442 103.456 8.442C104.499 8.442 105.394 8.62333 106.142 8.986C106.89 9.326 107.513 9.79067 108.012 10.38C108.511 10.9693 108.873 11.6607 109.1 12.454C109.349 13.2473 109.474 14.0973 109.474 15.004V25H106.278V16.058C106.278 15.4007 106.221 14.7773 106.108 14.188C106.017 13.5987 105.836 13.0773 105.564 12.624C105.292 12.1707 104.918 11.808 104.442 11.536C103.966 11.264 103.354 11.128 102.606 11.128C101.337 11.128 100.294 11.6153 99.4779 12.59C98.6846 13.542 98.2879 14.8227 98.2879 16.432V25H95.0919V12.352C95.0919 11.9213 95.0806 11.366 95.0579 10.686C95.0352 10.006 95.0012 9.40533 94.9559 8.884H97.9819ZM126.169 12.964C125.829 12.4427 125.319 12.012 124.639 11.672C123.959 11.3093 123.234 11.128 122.463 11.128C121.624 11.128 120.876 11.2867 120.219 11.604C119.584 11.9213 119.04 12.352 118.587 12.896C118.134 13.4173 117.782 14.0293 117.533 14.732C117.306 15.4347 117.193 16.1713 117.193 16.942C117.193 17.7127 117.306 18.4493 117.533 19.152C117.782 19.8547 118.134 20.478 118.587 21.022C119.04 21.5433 119.596 21.9627 120.253 22.28C120.91 22.5973 121.658 22.756 122.497 22.756C123.313 22.756 124.05 22.5973 124.707 22.28C125.387 21.9627 125.942 21.532 126.373 20.988L128.515 22.926C127.835 23.7193 126.985 24.3427 125.965 24.796C124.945 25.2267 123.789 25.442 122.497 25.442C121.25 25.442 120.094 25.238 119.029 24.83C117.986 24.422 117.08 23.8553 116.309 23.13C115.538 22.382 114.926 21.4867 114.473 20.444C114.042 19.4013 113.827 18.234 113.827 16.942C113.827 15.6727 114.042 14.5167 114.473 13.474C114.904 12.4313 115.504 11.536 116.275 10.788C117.046 10.04 117.952 9.462 118.995 9.054C120.06 8.646 121.205 8.442 122.429 8.442C123.562 8.442 124.684 8.66867 125.795 9.122C126.928 9.57533 127.824 10.2327 128.481 11.094L126.169 12.964ZM137.802 21.532H137.87L142.324 8.884H145.724L137.904 28.808C137.632 29.488 137.337 30.0887 137.02 30.61C136.702 31.154 136.328 31.6073 135.898 31.97C135.467 32.3553 134.957 32.65 134.368 32.854C133.801 33.058 133.121 33.16 132.328 33.16C131.988 33.16 131.636 33.1373 131.274 33.092C130.934 33.0693 130.582 33.0127 130.22 32.922L130.526 30.1C131.07 30.2813 131.602 30.372 132.124 30.372C132.962 30.372 133.586 30.134 133.994 29.658C134.402 29.2047 134.776 28.5473 135.116 27.686L136.136 25L129.234 8.884H132.804L137.802 21.532Z" fill="#37C491"/>
</svg>
