<svg width="20" height="13" viewBox="0 0 20 13" fill="none" xmlns="http://www.w3.org/2000/svg">
<g clip-path="url(#clip0_63_64)">
<g clip-path="url(#clip1_63_64)">
<path fill-rule="evenodd" clip-rule="evenodd" d="M19.6168 11.9901H0.344172C0.154113 11.9901 0 11.8489 0 11.6748V0.325051C0 0.150944 0.154113 0.00976562 0.344172 0.00976562H19.6169C19.8069 0.00976562 19.9611 0.150944 19.9611 0.325051V11.6748C19.961 11.8489 19.8069 11.9901 19.6168 11.9901Z" fill="#F5F5F5"/>
<path fill-rule="evenodd" clip-rule="evenodd" d="M19.961 0.931373H0V0.325051C0 0.150944 0.154113 0.00976562 0.344172 0.00976562H19.6169C19.8069 0.00976562 19.9611 0.150944 19.9611 0.325051V0.931373H19.961Z" fill="#FF4B55"/>
<rect y="3.69604" width="19.961" height="1" fill="#FF4B55"/>
<rect y="1.85303" width="19.961" height="1" fill="#FF4B55"/>
<path fill-rule="evenodd" clip-rule="evenodd" d="M19.961 6.46067H0.344172C0.154113 6.46067 0 6.31949 0 6.14538V5.53906H19.961V6.46067Z" fill="#FF4B55"/>
<rect y="9.22559" width="19.961" height="1" fill="#FF4B55"/>
<path fill-rule="evenodd" clip-rule="evenodd" d="M19.6168 11.9902H0.344172C0.154113 11.9902 0 11.849 0 11.6749V11.0686H19.961V11.6749C19.961 11.849 19.8069 11.9902 19.6168 11.9902Z" fill="#FF4B55"/>
<rect y="7.38257" width="19.961" height="1" fill="#FF4B55"/>
<path fill-rule="evenodd" clip-rule="evenodd" d="M8.94803 0.00976562H0.344172C0.154113 0.00976562 0 0.150908 0 0.325016V6.14537C0 6.31948 0.154113 6.46066 0.344172 6.46066H8.94807C9.13813 6.46066 9.29224 6.31948 9.29224 6.14537V0.325016C9.2922 0.150908 9.13809 0.00976562 8.94803 0.00976562Z" fill="#41479B"/>
<g clip-path="url(#clip2_63_64)">
<path fill-rule="evenodd" clip-rule="evenodd" d="M0.966438 0.733461L1.04262 0.942746L1.28344 0.944425C1.31463 0.944675 1.32753 0.981104 1.30246 0.998068L1.10874 1.12914L1.18141 1.33946C1.19084 1.36667 1.15696 1.38925 1.13158 1.3726L0.935678 1.24435L0.739772 1.37264C0.714391 1.38925 0.68059 1.36671 0.689947 1.3395L0.762618 1.12917L0.568894 0.998104C0.543826 0.981104 0.556731 0.944711 0.58792 0.944461L0.828738 0.942782L0.904918 0.733496C0.914742 0.706354 0.956536 0.706354 0.966438 0.733461Z" fill="#F5F5F5"/>
<path fill-rule="evenodd" clip-rule="evenodd" d="M0.966438 1.82816L1.04262 2.03745L1.28344 2.03912C1.31463 2.03937 1.32753 2.0758 1.30246 2.09277L1.10874 2.22384L1.18141 2.43416C1.19084 2.46137 1.15696 2.48395 1.13158 2.4673L0.935678 2.33905L0.739772 2.46734C0.714391 2.48395 0.68059 2.46141 0.689947 2.4342L0.762618 2.22387L0.568894 2.0928C0.543826 2.0758 0.556731 2.03941 0.58792 2.03916L0.828738 2.03748L0.904918 1.8282C0.914742 1.80109 0.956536 1.80109 0.966438 1.82816Z" fill="#F5F5F5"/>
<path fill-rule="evenodd" clip-rule="evenodd" d="M0.966438 2.92289L1.04262 3.13217L1.28344 3.13385C1.31463 3.1341 1.32753 3.17053 1.30246 3.18749L1.10874 3.31857L1.18141 3.52889C1.19084 3.5561 1.15696 3.57867 1.13158 3.56203L0.935678 3.43378L0.739772 3.56207C0.714391 3.57867 0.68059 3.55614 0.689947 3.52892L0.762618 3.3186L0.568894 3.18753C0.543826 3.17053 0.556731 3.13414 0.58792 3.13389L0.828738 3.13221L0.904918 2.92292C0.914742 2.89582 0.956536 2.89582 0.966438 2.92289Z" fill="#F5F5F5"/>
<path fill-rule="evenodd" clip-rule="evenodd" d="M0.966438 4.01764L1.04262 4.22693L1.28344 4.2286C1.31463 4.22885 1.32753 4.26528 1.30246 4.28225L1.10874 4.41332L1.18141 4.62364C1.19084 4.65085 1.15696 4.67343 1.13158 4.65678L0.935678 4.52853L0.739772 4.65682C0.714391 4.67343 0.68059 4.65089 0.689947 4.62368L0.762618 4.41335L0.568894 4.28228C0.543826 4.26528 0.556731 4.22889 0.58792 4.22864L0.828738 4.22696L0.904918 4.01768C0.914742 3.99053 0.956536 3.99053 0.966438 4.01764Z" fill="#F5F5F5"/>
<path fill-rule="evenodd" clip-rule="evenodd" d="M0.966438 5.11264L1.04262 5.32192L1.28344 5.3236C1.31463 5.32385 1.32753 5.36028 1.30246 5.37724L1.10874 5.50832L1.18141 5.71864C1.19084 5.74585 1.15696 5.76842 1.13158 5.75178L0.935678 5.62353L0.739772 5.75182C0.714391 5.76842 0.68059 5.74589 0.689947 5.71867L0.762618 5.50835L0.568894 5.37728C0.543826 5.36028 0.556731 5.32389 0.58792 5.32364L0.828738 5.32196L0.904918 5.11267C0.914742 5.08549 0.956536 5.08549 0.966438 5.11264Z" fill="#F5F5F5"/>
<path fill-rule="evenodd" clip-rule="evenodd" d="M1.89402 1.27006L1.9702 1.47935L2.21102 1.48102C2.24221 1.48127 2.25511 1.5177 2.23004 1.53467L2.03632 1.66574L2.10899 1.87606C2.11843 1.90327 2.08455 1.92585 2.05917 1.9092L1.86326 1.78092L1.66735 1.9092C1.64197 1.92581 1.60817 1.90327 1.61753 1.87606L1.6902 1.66574L1.49648 1.53467C1.47141 1.51767 1.48431 1.48127 1.5155 1.48102L1.75632 1.47935L1.8325 1.27006C1.84229 1.24299 1.88416 1.24299 1.89402 1.27006Z" fill="#F5F5F5"/>
<path fill-rule="evenodd" clip-rule="evenodd" d="M1.89402 2.36481L1.9702 2.5741L2.21102 2.57578C2.24221 2.57603 2.25511 2.61246 2.23004 2.62942L2.03632 2.76049L2.10899 2.97081C2.11843 2.99803 2.08455 3.0206 2.05917 3.00396L1.86326 2.87567L1.66735 3.00396C1.64197 3.02056 1.60817 2.99806 1.61753 2.97081L1.6902 2.76049L1.49648 2.62942C1.47141 2.61242 1.48431 2.57603 1.5155 2.57578L1.75632 2.5741L1.8325 2.36481C1.84229 2.33771 1.88416 2.33771 1.89402 2.36481Z" fill="#F5F5F5"/>
<path fill-rule="evenodd" clip-rule="evenodd" d="M1.89402 3.45978L1.9702 3.66907L2.21102 3.67075C2.24221 3.671 2.25511 3.70743 2.23004 3.72439L2.03632 3.85546L2.10899 4.06578C2.11843 4.093 2.08455 4.11557 2.05917 4.09893L1.86326 3.97064L1.66735 4.09893C1.64197 4.11553 1.60817 4.093 1.61753 4.06578L1.6902 3.85546L1.49648 3.72439C1.47141 3.70739 1.48431 3.671 1.5155 3.67075L1.75632 3.66907L1.8325 3.45978C1.84229 3.43268 1.88416 3.43268 1.89402 3.45978Z" fill="#F5F5F5"/>
<path fill-rule="evenodd" clip-rule="evenodd" d="M1.89402 4.55448L1.9702 4.76377L2.21102 4.76545C2.24221 4.7657 2.25511 4.80213 2.23004 4.81909L2.03632 4.95016L2.10899 5.16048C2.11843 5.1877 2.08455 5.21027 2.05917 5.19363L1.86326 5.06534L1.66735 5.19363C1.64197 5.21023 1.60817 5.1877 1.61753 5.16048L1.6902 4.95016L1.49648 4.81909C1.47141 4.80209 1.48431 4.7657 1.5155 4.76545L1.75632 4.76377L1.8325 4.55448C1.84229 4.52741 1.88416 4.52741 1.89402 4.55448Z" fill="#F5F5F5"/>
<path fill-rule="evenodd" clip-rule="evenodd" d="M2.82163 0.733465L2.89781 0.942751L3.13863 0.944429C3.16982 0.944679 3.18272 0.981108 3.15766 0.998072L2.96393 1.12914L3.0366 1.33947C3.04604 1.36668 3.01216 1.38925 2.98678 1.37261L2.79087 1.24432L2.59497 1.37261C2.56959 1.38922 2.53578 1.36668 2.54514 1.33947L2.61781 1.12914L2.42409 0.998072C2.39902 0.981072 2.41192 0.944679 2.44311 0.944429L2.68393 0.942751L2.76011 0.733465C2.76994 0.706358 2.81177 0.706358 2.82163 0.733465Z" fill="#F5F5F5"/>
<path fill-rule="evenodd" clip-rule="evenodd" d="M2.82163 1.82816L2.89781 2.03745L3.13863 2.03913C3.16982 2.03938 3.18272 2.07581 3.15766 2.09277L2.96393 2.22384L3.0366 2.43416C3.04604 2.46138 3.01216 2.48395 2.98678 2.46731L2.79087 2.33902L2.59497 2.46731C2.56959 2.48391 2.53578 2.46138 2.54514 2.43416L2.61781 2.22384L2.42409 2.09277C2.39902 2.07577 2.41192 2.03938 2.44311 2.03913L2.68393 2.03745L2.76011 1.82816C2.76994 1.80109 2.81177 1.80109 2.82163 1.82816Z" fill="#F5F5F5"/>
<path fill-rule="evenodd" clip-rule="evenodd" d="M2.82163 2.92289L2.89781 3.13218L3.13863 3.13386C3.16982 3.13411 3.18272 3.17053 3.15766 3.1875L2.96393 3.31857L3.0366 3.52889C3.04604 3.55611 3.01216 3.57868 2.98678 3.56203L2.79087 3.43375L2.59497 3.56203C2.56959 3.57864 2.53578 3.55611 2.54514 3.52889L2.61781 3.31857L2.42409 3.1875C2.39902 3.1705 2.41192 3.13411 2.44311 3.13386L2.68393 3.13218L2.76011 2.92289C2.76994 2.89582 2.81177 2.89582 2.82163 2.92289Z" fill="#F5F5F5"/>
<path fill-rule="evenodd" clip-rule="evenodd" d="M2.82163 4.01764L2.89781 4.22693L3.13863 4.22861C3.16982 4.22886 3.18272 4.26529 3.15766 4.28225L2.96393 4.41332L3.0366 4.62364C3.04604 4.65086 3.01216 4.67343 2.98678 4.65679L2.79087 4.5285L2.59497 4.65679C2.56959 4.67339 2.53578 4.65086 2.54514 4.62364L2.61781 4.41332L2.42409 4.28225C2.39902 4.26525 2.41192 4.22886 2.44311 4.22861L2.68393 4.22693L2.76011 4.01764C2.76994 3.99054 2.81177 3.99054 2.82163 4.01764Z" fill="#F5F5F5"/>
<path fill-rule="evenodd" clip-rule="evenodd" d="M2.82163 5.11264L2.89781 5.32193L3.13863 5.32361C3.16982 5.32386 3.18272 5.36029 3.15766 5.37725L2.96393 5.50832L3.0366 5.71864C3.04604 5.74586 3.01216 5.76843 2.98678 5.75179L2.79087 5.6235L2.59497 5.75179C2.56959 5.76839 2.53578 5.74586 2.54514 5.71864L2.61781 5.50832L2.42409 5.37725C2.39902 5.36025 2.41192 5.32386 2.44311 5.32361L2.68393 5.32193L2.76011 5.11264C2.76994 5.0855 2.81177 5.0855 2.82163 5.11264Z" fill="#F5F5F5"/>
<path fill-rule="evenodd" clip-rule="evenodd" d="M3.74928 1.27006L3.82545 1.47935L4.06627 1.48102C4.09746 1.48127 4.11037 1.5177 4.0853 1.53467L3.89158 1.66574L3.96425 1.87606C3.97368 1.90327 3.9398 1.92585 3.91442 1.9092L3.71851 1.78092L3.52261 1.9092C3.49723 1.92581 3.46343 1.90327 3.47278 1.87606L3.54545 1.66574L3.35173 1.53467C3.32666 1.51767 3.33957 1.48127 3.37076 1.48102L3.61158 1.47935L3.68775 1.27006C3.69754 1.24299 3.73941 1.24299 3.74928 1.27006Z" fill="#F5F5F5"/>
<path fill-rule="evenodd" clip-rule="evenodd" d="M3.74928 2.36481L3.82545 2.5741L4.06627 2.57578C4.09746 2.57603 4.11037 2.61246 4.0853 2.62942L3.89158 2.76049L3.96425 2.97081C3.97368 2.99803 3.9398 3.0206 3.91442 3.00396L3.71851 2.87567L3.52261 3.00396C3.49723 3.02056 3.46343 2.99806 3.47278 2.97081L3.54545 2.76049L3.35173 2.62942C3.32666 2.61242 3.33957 2.57603 3.37076 2.57578L3.61158 2.5741L3.68775 2.36481C3.69754 2.33771 3.73941 2.33771 3.74928 2.36481Z" fill="#F5F5F5"/>
<path fill-rule="evenodd" clip-rule="evenodd" d="M3.74928 3.45978L3.82545 3.66907L4.06627 3.67075C4.09746 3.671 4.11037 3.70743 4.0853 3.72439L3.89158 3.85546L3.96425 4.06578C3.97368 4.093 3.9398 4.11557 3.91442 4.09893L3.71851 3.97064L3.52261 4.09893C3.49723 4.11553 3.46343 4.093 3.47278 4.06578L3.54545 3.85546L3.35173 3.72439C3.32666 3.70739 3.33957 3.671 3.37076 3.67075L3.61158 3.66907L3.68775 3.45978C3.69754 3.43268 3.73941 3.43268 3.74928 3.45978Z" fill="#F5F5F5"/>
<path fill-rule="evenodd" clip-rule="evenodd" d="M3.74928 4.55448L3.82545 4.76377L4.06627 4.76545C4.09746 4.7657 4.11037 4.80213 4.0853 4.81909L3.89158 4.95016L3.96425 5.16048C3.97368 5.1877 3.9398 5.21027 3.91442 5.19363L3.71851 5.06534L3.52261 5.19363C3.49723 5.21023 3.46343 5.1877 3.47278 5.16048L3.54545 4.95016L3.35173 4.81909C3.32666 4.80209 3.33957 4.7657 3.37076 4.76545L3.61158 4.76377L3.68775 4.55448C3.69754 4.52741 3.73941 4.52741 3.74928 4.55448Z" fill="#F5F5F5"/>
<path fill-rule="evenodd" clip-rule="evenodd" d="M4.67687 0.733465L4.75304 0.942751L4.99386 0.944429C5.02505 0.944679 5.03796 0.981108 5.01289 0.998072L4.81917 1.12914L4.89184 1.33947C4.90127 1.36668 4.86739 1.38925 4.84201 1.37261L4.64607 1.24432L4.45016 1.37261C4.42478 1.38922 4.39098 1.36668 4.40034 1.33947L4.47301 1.12914L4.27928 0.998072C4.25421 0.981072 4.26712 0.944679 4.29831 0.944429L4.53913 0.942751L4.61531 0.733465C4.62517 0.706358 4.667 0.706358 4.67687 0.733465Z" fill="#F5F5F5"/>
<path fill-rule="evenodd" clip-rule="evenodd" d="M4.67687 1.82816L4.75304 2.03745L4.99386 2.03913C5.02505 2.03938 5.03796 2.07581 5.01289 2.09277L4.81917 2.22384L4.89184 2.43416C4.90127 2.46138 4.86739 2.48395 4.84201 2.46731L4.64607 2.33902L4.45016 2.46731C4.42478 2.48391 4.39098 2.46138 4.40034 2.43416L4.47301 2.22384L4.27928 2.09277C4.25421 2.07577 4.26712 2.03938 4.29831 2.03913L4.53913 2.03745L4.61531 1.82816C4.62517 1.80109 4.667 1.80109 4.67687 1.82816Z" fill="#F5F5F5"/>
<path fill-rule="evenodd" clip-rule="evenodd" d="M4.67687 2.92289L4.75304 3.13218L4.99386 3.13386C5.02505 3.13411 5.03796 3.17053 5.01289 3.1875L4.81917 3.31857L4.89184 3.52889C4.90127 3.55611 4.86739 3.57868 4.84201 3.56203L4.64607 3.43375L4.45016 3.56203C4.42478 3.57864 4.39098 3.55611 4.40034 3.52889L4.47301 3.31857L4.27928 3.1875C4.25421 3.1705 4.26712 3.13411 4.29831 3.13386L4.53913 3.13218L4.61531 2.92289C4.62517 2.89582 4.667 2.89582 4.67687 2.92289Z" fill="#F5F5F5"/>
<path fill-rule="evenodd" clip-rule="evenodd" d="M4.67687 4.01764L4.75304 4.22693L4.99386 4.22861C5.02505 4.22886 5.03796 4.26529 5.01289 4.28225L4.81917 4.41332L4.89184 4.62364C4.90127 4.65086 4.86739 4.67343 4.84201 4.65679L4.64607 4.5285L4.45016 4.65679C4.42478 4.67339 4.39098 4.65086 4.40034 4.62364L4.47301 4.41332L4.27928 4.28225C4.25421 4.26525 4.26712 4.22886 4.29831 4.22861L4.53913 4.22693L4.61531 4.01764C4.62517 3.99054 4.667 3.99054 4.67687 4.01764Z" fill="#F5F5F5"/>
<path fill-rule="evenodd" clip-rule="evenodd" d="M4.67687 5.11264L4.75304 5.32193L4.99386 5.32361C5.02505 5.32386 5.03796 5.36029 5.01289 5.37725L4.81917 5.50832L4.89184 5.71864C4.90127 5.74586 4.86739 5.76843 4.84201 5.75179L4.64607 5.6235L4.45016 5.75179C4.42478 5.76839 4.39098 5.74586 4.40034 5.71864L4.47301 5.50832L4.27928 5.37725C4.25421 5.36025 4.26712 5.32386 4.29831 5.32361L4.53913 5.32193L4.61531 5.11264C4.62517 5.0855 4.667 5.0855 4.67687 5.11264Z" fill="#F5F5F5"/>
<path fill-rule="evenodd" clip-rule="evenodd" d="M5.60447 1.27006L5.68065 1.47935L5.92147 1.48102C5.95266 1.48127 5.96556 1.5177 5.94049 1.53467L5.74677 1.66574L5.81944 1.87606C5.82887 1.90327 5.795 1.92585 5.76962 1.9092L5.57371 1.78092L5.3778 1.9092C5.35242 1.92581 5.31862 1.90327 5.32798 1.87606L5.40065 1.66574L5.20693 1.53467C5.18186 1.51767 5.19476 1.48127 5.22595 1.48102L5.46677 1.47935L5.54295 1.27006C5.55281 1.24299 5.59461 1.24299 5.60447 1.27006Z" fill="#F5F5F5"/>
<path fill-rule="evenodd" clip-rule="evenodd" d="M5.60447 2.36481L5.68065 2.5741L5.92147 2.57578C5.95266 2.57603 5.96556 2.61246 5.94049 2.62942L5.74677 2.76049L5.81944 2.97081C5.82887 2.99803 5.795 3.0206 5.76962 3.00396L5.57371 2.87567L5.3778 3.00396C5.35242 3.02056 5.31862 2.99806 5.32798 2.97081L5.40065 2.76049L5.20693 2.62942C5.18186 2.61242 5.19476 2.57603 5.22595 2.57578L5.46677 2.5741L5.54295 2.36481C5.55281 2.33771 5.59461 2.33771 5.60447 2.36481Z" fill="#F5F5F5"/>
<path fill-rule="evenodd" clip-rule="evenodd" d="M5.60447 3.45978L5.68065 3.66907L5.92147 3.67075C5.95266 3.671 5.96556 3.70743 5.94049 3.72439L5.74677 3.85546L5.81944 4.06578C5.82887 4.093 5.795 4.11557 5.76962 4.09893L5.57371 3.97064L5.3778 4.09893C5.35242 4.11553 5.31862 4.093 5.32798 4.06578L5.40065 3.85546L5.20693 3.72439C5.18186 3.70739 5.19476 3.671 5.22595 3.67075L5.46677 3.66907L5.54295 3.45978C5.55281 3.43268 5.59461 3.43268 5.60447 3.45978Z" fill="#F5F5F5"/>
<path fill-rule="evenodd" clip-rule="evenodd" d="M5.60447 4.55448L5.68065 4.76377L5.92147 4.76545C5.95266 4.7657 5.96556 4.80213 5.94049 4.81909L5.74677 4.95016L5.81944 5.16048C5.82887 5.1877 5.795 5.21027 5.76962 5.19363L5.57371 5.06534L5.3778 5.19363C5.35242 5.21023 5.31862 5.1877 5.32798 5.16048L5.40065 4.95016L5.20693 4.81909C5.18186 4.80209 5.19476 4.7657 5.22595 4.76545L5.46677 4.76377L5.54295 4.55448C5.55281 4.52741 5.59461 4.52741 5.60447 4.55448Z" fill="#F5F5F5"/>
<path fill-rule="evenodd" clip-rule="evenodd" d="M6.53211 0.733465L6.60829 0.942751L6.84911 0.944429C6.8803 0.944679 6.8932 0.981108 6.86814 0.998072L6.67441 1.12914L6.74708 1.33947C6.75652 1.36668 6.72264 1.38925 6.69726 1.37261L6.50135 1.24432L6.30545 1.37261C6.28007 1.38922 6.24626 1.36668 6.25562 1.33947L6.32829 1.12914L6.13457 0.998072C6.1095 0.981072 6.1224 0.944679 6.15359 0.944429L6.39441 0.942751L6.47059 0.733465C6.48038 0.706358 6.52225 0.706358 6.53211 0.733465Z" fill="#F5F5F5"/>
<path fill-rule="evenodd" clip-rule="evenodd" d="M6.53211 1.82816L6.60829 2.03745L6.84911 2.03913C6.8803 2.03938 6.8932 2.07581 6.86814 2.09277L6.67441 2.22384L6.74708 2.43416C6.75652 2.46138 6.72264 2.48395 6.69726 2.46731L6.50135 2.33902L6.30545 2.46731C6.28007 2.48391 6.24626 2.46138 6.25562 2.43416L6.32829 2.22384L6.13457 2.09277C6.1095 2.07577 6.1224 2.03938 6.15359 2.03913L6.39441 2.03745L6.47059 1.82816C6.48038 1.80109 6.52225 1.80109 6.53211 1.82816Z" fill="#F5F5F5"/>
<path fill-rule="evenodd" clip-rule="evenodd" d="M6.53211 2.92289L6.60829 3.13218L6.84911 3.13386C6.8803 3.13411 6.8932 3.17053 6.86814 3.1875L6.67441 3.31857L6.74708 3.52889C6.75652 3.55611 6.72264 3.57868 6.69726 3.56203L6.50135 3.43375L6.30545 3.56203C6.28007 3.57864 6.24626 3.55611 6.25562 3.52889L6.32829 3.31857L6.13457 3.1875C6.1095 3.1705 6.1224 3.13411 6.15359 3.13386L6.39441 3.13218L6.47059 2.92289C6.48038 2.89582 6.52225 2.89582 6.53211 2.92289Z" fill="#F5F5F5"/>
<path fill-rule="evenodd" clip-rule="evenodd" d="M6.53211 4.01764L6.60829 4.22693L6.84911 4.22861C6.8803 4.22886 6.8932 4.26529 6.86814 4.28225L6.67441 4.41332L6.74708 4.62364C6.75652 4.65086 6.72264 4.67343 6.69726 4.65679L6.50135 4.5285L6.30545 4.65679C6.28007 4.67339 6.24626 4.65086 6.25562 4.62364L6.32829 4.41332L6.13457 4.28225C6.1095 4.26525 6.1224 4.22886 6.15359 4.22861L6.39441 4.22693L6.47059 4.01764C6.48038 3.99054 6.52225 3.99054 6.53211 4.01764Z" fill="#F5F5F5"/>
<path fill-rule="evenodd" clip-rule="evenodd" d="M6.53211 5.11264L6.60829 5.32193L6.84911 5.32361C6.8803 5.32386 6.8932 5.36029 6.86814 5.37725L6.67441 5.50832L6.74708 5.71864C6.75652 5.74586 6.72264 5.76843 6.69726 5.75179L6.50135 5.6235L6.30545 5.75179C6.28007 5.76839 6.24626 5.74586 6.25562 5.71864L6.32829 5.50832L6.13457 5.37725C6.1095 5.36025 6.1224 5.32386 6.15359 5.32361L6.39441 5.32193L6.47059 5.11264C6.48038 5.0855 6.52225 5.0855 6.53211 5.11264Z" fill="#F5F5F5"/>
<path fill-rule="evenodd" clip-rule="evenodd" d="M7.45972 1.27006L7.5359 1.47935L7.77672 1.48102C7.80791 1.48127 7.82082 1.5177 7.79575 1.53467L7.60202 1.66574L7.6747 1.87606C7.68413 1.90327 7.65025 1.92585 7.62487 1.9092L7.42896 1.78092L7.23306 1.9092C7.20768 1.92581 7.17388 1.90327 7.18323 1.87606L7.2559 1.66574L7.06218 1.53467C7.03711 1.51767 7.05002 1.48127 7.08121 1.48102L7.32202 1.47935L7.3982 1.27006C7.40803 1.24299 7.4499 1.24299 7.45972 1.27006Z" fill="#F5F5F5"/>
<path fill-rule="evenodd" clip-rule="evenodd" d="M7.45972 2.36481L7.5359 2.5741L7.77672 2.57578C7.80791 2.57603 7.82082 2.61246 7.79575 2.62942L7.60202 2.76049L7.6747 2.97081C7.68413 2.99803 7.65025 3.0206 7.62487 3.00396L7.42896 2.87567L7.23306 3.00396C7.20768 3.02056 7.17388 2.99806 7.18323 2.97081L7.2559 2.76049L7.06218 2.62942C7.03711 2.61242 7.05002 2.57603 7.08121 2.57578L7.32202 2.5741L7.3982 2.36481C7.40803 2.33771 7.4499 2.33771 7.45972 2.36481Z" fill="#F5F5F5"/>
<path fill-rule="evenodd" clip-rule="evenodd" d="M7.45972 3.45978L7.5359 3.66907L7.77672 3.67075C7.80791 3.671 7.82082 3.70743 7.79575 3.72439L7.60202 3.85546L7.6747 4.06578C7.68413 4.093 7.65025 4.11557 7.62487 4.09893L7.42896 3.97064L7.23306 4.09893C7.20768 4.11553 7.17388 4.093 7.18323 4.06578L7.2559 3.85546L7.06218 3.72439C7.03711 3.70739 7.05002 3.671 7.08121 3.67075L7.32202 3.66907L7.3982 3.45978C7.40803 3.43268 7.4499 3.43268 7.45972 3.45978Z" fill="#F5F5F5"/>
<path fill-rule="evenodd" clip-rule="evenodd" d="M7.45972 4.55448L7.5359 4.76377L7.77672 4.76545C7.80791 4.7657 7.82082 4.80213 7.79575 4.81909L7.60202 4.95016L7.6747 5.16048C7.68413 5.1877 7.65025 5.21027 7.62487 5.19363L7.42896 5.06534L7.23306 5.19363C7.20768 5.21023 7.17388 5.1877 7.18323 5.16048L7.2559 4.95016L7.06218 4.81909C7.03711 4.80209 7.05002 4.7657 7.08121 4.76545L7.32202 4.76377L7.3982 4.55448C7.40803 4.52741 7.4499 4.52741 7.45972 4.55448Z" fill="#F5F5F5"/>
<path fill-rule="evenodd" clip-rule="evenodd" d="M8.38737 0.733465L8.46355 0.942751L8.70437 0.944429C8.73555 0.944679 8.74846 0.981108 8.72339 0.998072L8.52967 1.12914L8.60234 1.33947C8.61177 1.36668 8.57789 1.38925 8.55251 1.37261L8.35661 1.24432L8.1607 1.37261C8.13532 1.38922 8.10152 1.36668 8.11088 1.33947L8.18355 1.12914L7.98982 0.998072C7.96476 0.981072 7.97766 0.944679 8.00885 0.944429L8.24967 0.942751L8.32585 0.733465C8.33567 0.706358 8.37746 0.706358 8.38737 0.733465Z" fill="#F5F5F5"/>
<path fill-rule="evenodd" clip-rule="evenodd" d="M8.38737 1.82816L8.46355 2.03745L8.70437 2.03913C8.73555 2.03938 8.74846 2.07581 8.72339 2.09277L8.52967 2.22384L8.60234 2.43416C8.61177 2.46138 8.57789 2.48395 8.55251 2.46731L8.35661 2.33902L8.1607 2.46731C8.13532 2.48391 8.10152 2.46138 8.11088 2.43416L8.18355 2.22384L7.98982 2.09277C7.96476 2.07577 7.97766 2.03938 8.00885 2.03913L8.24967 2.03745L8.32585 1.82816C8.33567 1.80109 8.37746 1.80109 8.38737 1.82816Z" fill="#F5F5F5"/>
<path fill-rule="evenodd" clip-rule="evenodd" d="M8.38737 2.92289L8.46355 3.13218L8.70437 3.13386C8.73555 3.13411 8.74846 3.17053 8.72339 3.1875L8.52967 3.31857L8.60234 3.52889C8.61177 3.55611 8.57789 3.57868 8.55251 3.56203L8.35661 3.43375L8.1607 3.56203C8.13532 3.57864 8.10152 3.55611 8.11088 3.52889L8.18355 3.31857L7.98982 3.1875C7.96476 3.1705 7.97766 3.13411 8.00885 3.13386L8.24967 3.13218L8.32585 2.92289C8.33567 2.89582 8.37746 2.89582 8.38737 2.92289Z" fill="#F5F5F5"/>
<path fill-rule="evenodd" clip-rule="evenodd" d="M8.38737 4.01764L8.46355 4.22693L8.70437 4.22861C8.73555 4.22886 8.74846 4.26529 8.72339 4.28225L8.52967 4.41332L8.60234 4.62364C8.61177 4.65086 8.57789 4.67343 8.55251 4.65679L8.35661 4.5285L8.1607 4.65679C8.13532 4.67339 8.10152 4.65086 8.11088 4.62364L8.18355 4.41332L7.98982 4.28225C7.96476 4.26525 7.97766 4.22886 8.00885 4.22861L8.24967 4.22693L8.32585 4.01764C8.33567 3.99054 8.37746 3.99054 8.38737 4.01764Z" fill="#F5F5F5"/>
<path fill-rule="evenodd" clip-rule="evenodd" d="M8.38737 5.11264L8.46355 5.32193L8.70437 5.32361C8.73555 5.32386 8.74846 5.36029 8.72339 5.37725L8.52967 5.50832L8.60234 5.71864C8.61177 5.74586 8.57789 5.76843 8.55251 5.75179L8.35661 5.6235L8.1607 5.75179C8.13532 5.76839 8.10152 5.74586 8.11088 5.71864L8.18355 5.50832L7.98982 5.37725C7.96476 5.36025 7.97766 5.32386 8.00885 5.32361L8.24967 5.32193L8.32585 5.11264C8.33567 5.0855 8.37746 5.0855 8.38737 5.11264Z" fill="#F5F5F5"/>
</g>
</g>
</g>
<defs>
<clipPath id="clip0_63_64">
<rect width="20" height="13" fill="white"/>
</clipPath>
<clipPath id="clip1_63_64">
<rect width="20" height="13" fill="white"/>
</clipPath>
<clipPath id="clip2_63_64">
<rect width="9" height="6" fill="white" transform="translate(0.545807 0.678467)"/>
</clipPath>
</defs>
</svg>
